<svg width="35" height="35" viewBox="0 0 35 35" fill="none" xmlns="http://www.w3.org/2000/svg">
<path d="M10.75 26.875L17.5 20.125L24.25 26.875L26.875 24.25L20.125 17.5L26.875 10.75L24.25 8.125L17.5 14.875L10.75 8.125L8.125 10.75L14.875 17.5L8.125 24.25L10.75 26.875ZM4.375 34.375C3.34375 34.375 2.46125 34.0081 1.7275 33.2744C0.99375 32.5406 0.62625 31.6575 0.625 30.625V4.375C0.625 3.34375 0.9925 2.46125 1.7275 1.7275C2.4625 0.99375 3.345 0.62625 4.375 0.625H30.625C31.6562 0.625 32.5394 0.9925 33.2744 1.7275C34.0094 2.4625 34.3763 3.345 34.375 4.375V30.625C34.375 31.6562 34.0081 32.5394 33.2744 33.2744C32.5406 34.0094 31.6575 34.3763 30.625 34.375H4.375Z" fill="white"/>
</svg>
