<svg width="32" height="34" viewBox="0 0 32 34" fill="none" xmlns="http://www.w3.org/2000/svg">
<path d="M30.5421 5.79168H22.7254V4.30835C22.7174 3.2584 22.2986 2.25332 21.5587 1.50835C21.1894 1.13772 20.7504 0.843832 20.267 0.643603C19.7835 0.443374 19.2653 0.340763 18.7421 0.341681H13.3087C12.7855 0.340763 12.2672 0.443374 11.7838 0.643603C11.3004 0.843832 10.8614 1.13772 10.4921 1.50835C9.75674 2.255 9.34381 3.26041 9.34206 4.30835V5.79168H1.52539C1.19387 5.79168 0.875927 5.92338 0.641507 6.1578C0.407087 6.39222 0.275391 6.71016 0.275391 7.04168C0.275391 7.3732 0.407087 7.69114 0.641507 7.92557C0.875927 8.15999 1.19387 8.29168 1.52539 8.29168H3.89206V27.8917C3.88526 28.6513 4.02905 29.4047 4.31512 30.1085C4.60118 30.8122 5.02386 31.4523 5.55872 31.9917C6.64928 33.0602 8.11528 33.6586 9.64206 33.6583H22.3421C23.8688 33.6586 25.3348 33.0602 26.4254 31.9917C26.9601 31.4521 27.3827 30.8121 27.6687 30.1084C27.9548 29.4047 28.0987 28.6513 28.0921 27.8917V8.29168H30.4754C30.8069 8.29168 31.1249 8.15999 31.3593 7.92557C31.5937 7.69114 31.7254 7.3732 31.7254 7.04168C31.7254 6.71016 31.5937 6.39222 31.3593 6.1578C31.1249 5.92338 30.8069 5.79168 30.4754 5.79168H30.5421ZM11.8754 4.30835C11.8755 4.11597 11.9138 3.92554 11.9882 3.74813C12.0626 3.57073 12.1716 3.4099 12.3087 3.27501C12.5843 3.00251 12.9546 2.84722 13.3421 2.84168H18.7754C18.9704 2.84047 19.1638 2.87816 19.344 2.95257C19.5243 3.02698 19.688 3.1366 19.8254 3.27501C20.0964 3.55152 20.2515 3.92122 20.2587 4.30835V5.79168H11.9254L11.8754 4.30835ZM14.0921 25.325C14.0921 25.767 13.9165 26.191 13.6039 26.5035C13.2913 26.8161 12.8674 26.9917 12.4254 26.9917C11.9834 26.9917 11.5594 26.8161 11.2469 26.5035C10.9343 26.191 10.7587 25.767 10.7587 25.325V16.275C10.7587 15.833 10.9343 15.4091 11.2469 15.0965C11.5594 14.7839 11.9834 14.6083 12.4254 14.6083C12.8674 14.6083 13.2913 14.7839 13.6039 15.0965C13.9165 15.4091 14.0921 15.833 14.0921 16.275V25.325ZM21.3587 25.325C21.3587 25.767 21.1831 26.191 20.8706 26.5035C20.558 26.8161 20.1341 26.9917 19.6921 26.9917C19.25 26.9917 18.8261 26.8161 18.5135 26.5035C18.201 26.191 18.0254 25.767 18.0254 25.325V16.275C18.0254 15.833 18.201 15.4091 18.5135 15.0965C18.8261 14.7839 19.25 14.6083 19.6921 14.6083C20.1341 14.6083 20.558 14.7839 20.8706 15.0965C21.1831 15.4091 21.3587 15.833 21.3587 16.275V25.325Z" fill="white"/>
</svg>
