<svg width="14" height="9" viewBox="0 0 14 9" fill="none" xmlns="http://www.w3.org/2000/svg">
<path fill-rule="evenodd" clip-rule="evenodd" d="M7.73637 7.86137C7.54103 8.05665 7.27612 8.16635 6.99991 8.16635C6.7237 8.16635 6.45879 8.05665 6.26345 7.86137L0.370743 1.96866C0.271253 1.87257 0.191897 1.75763 0.137304 1.63054C0.0827113 1.50345 0.0539756 1.36676 0.0527737 1.22845C0.0515718 1.09014 0.077928 0.952975 0.130304 0.824958C0.18268 0.696941 0.260027 0.580636 0.357832 0.482831C0.455637 0.385026 0.57194 0.307679 0.699957 0.255303C0.827974 0.202928 0.965141 0.176572 1.10345 0.177774C1.24176 0.178976 1.37845 0.207711 1.50554 0.262304C1.63263 0.316897 1.74757 0.396253 1.84366 0.495743L6.99991 5.65199L12.1562 0.495743C12.3526 0.305995 12.6157 0.201001 12.8889 0.203374C13.162 0.205747 13.4233 0.315298 13.6164 0.508431C13.8095 0.701565 13.9191 0.962828 13.9214 1.23595C13.9238 1.50907 13.8188 1.7722 13.6291 1.96866L7.73637 7.86137Z" fill="#307A59"/>
</svg>
