<svg width="14" height="9" viewBox="0 0 14 9" fill="none" xmlns="http://www.w3.org/2000/svg">
<path fill-rule="evenodd" clip-rule="evenodd" d="M7.73637 8.36137C7.54103 8.55665 7.27612 8.66635 6.99991 8.66635C6.7237 8.66635 6.45879 8.55665 6.26345 8.36137L0.370743 2.46866C0.271253 2.37257 0.191897 2.25763 0.137304 2.13054C0.0827113 2.00345 0.0539756 1.86676 0.0527737 1.72845C0.0515718 1.59014 0.077928 1.45297 0.130304 1.32496C0.18268 1.19694 0.260027 1.08064 0.357832 0.982831C0.455637 0.885026 0.57194 0.807679 0.699957 0.755303C0.827974 0.702928 0.965141 0.676572 1.10345 0.677774C1.24176 0.678976 1.37845 0.707711 1.50554 0.762304C1.63263 0.816897 1.74757 0.896253 1.84366 0.995743L6.99991 6.15199L12.1562 0.995743C12.3526 0.805995 12.6157 0.701001 12.8889 0.703374C13.162 0.705747 13.4233 0.815298 13.6164 1.00843C13.8095 1.20156 13.9191 1.46283 13.9214 1.73595C13.9238 2.00907 13.8188 2.2722 13.6291 2.46866L7.73637 8.36137Z" fill="white"/>
</svg>
