<svg width="19" height="20" viewBox="0 0 19 20" fill="none" xmlns="http://www.w3.org/2000/svg">
<path d="M9.50004 0.0834961C7.56617 0.0834961 5.7115 0.851723 4.34405 2.21918C2.9766 3.58663 2.20837 5.44129 2.20837 7.37516V11.0502C2.20852 11.2118 2.17108 11.3712 2.099 11.5158L0.310456 15.0918C0.223088 15.2665 0.181833 15.4607 0.190611 15.6558C0.199388 15.851 0.257906 16.0406 0.360607 16.2068C0.463308 16.3729 0.606781 16.5101 0.777401 16.6052C0.94802 16.7003 1.14012 16.7502 1.33546 16.7502H17.6646C17.86 16.7502 18.0521 16.7003 18.2227 16.6052C18.3933 16.5101 18.5368 16.3729 18.6395 16.2068C18.7422 16.0406 18.8007 15.851 18.8095 15.6558C18.8182 15.4607 18.777 15.2665 18.6896 15.0918L16.9021 11.5158C16.8297 11.3713 16.7919 11.2118 16.7917 11.0502V7.37516C16.7917 5.44129 16.0235 3.58663 14.656 2.21918C13.2886 0.851723 11.4339 0.0834961 9.50004 0.0834961ZM9.50004 19.8752C8.85353 19.8755 8.22282 19.6753 7.69485 19.3022C7.16688 18.9291 6.76763 18.4014 6.55212 17.7918H12.448C12.2325 18.4014 11.8332 18.9291 11.3052 19.3022C10.7773 19.6753 10.1466 19.8755 9.50004 19.8752Z" fill="#307A59"/>
</svg>
