<svg width="15" height="15" viewBox="0 0 15 15" fill="none" xmlns="http://www.w3.org/2000/svg">
<path d="M13.7507 8.54183H8.54232V13.7502C8.54232 14.3231 8.07357 14.7918 7.50065 14.7918C6.92773 14.7918 6.45898 14.3231 6.45898 13.7502V8.54183H1.25065C0.677734 8.54183 0.208984 8.07308 0.208984 7.50016C0.208984 6.92725 0.677734 6.4585 1.25065 6.4585H6.45898V1.25016C6.45898 0.677246 6.92773 0.208496 7.50065 0.208496C8.07357 0.208496 8.54232 0.677246 8.54232 1.25016V6.4585H13.7507C14.3236 6.4585 14.7923 6.92725 14.7923 7.50016C14.7923 8.07308 14.3236 8.54183 13.7507 8.54183Z" fill="#060606"/>
</svg>
