<svg width="32" height="34" viewBox="0 0 32 34" fill="none" xmlns="http://www.w3.org/2000/svg">
<path d="M30.5421 5.7918H22.7254V4.30847C22.7174 3.25852 22.2986 2.25344 21.5587 1.50847C21.1894 1.13784 20.7504 0.843954 20.267 0.643725C19.7835 0.443496 19.2653 0.340886 18.7421 0.341803H13.3087C12.7855 0.340886 12.2672 0.443496 11.7838 0.643725C11.3004 0.843954 10.8614 1.13784 10.4921 1.50847C9.75674 2.25513 9.34381 3.26053 9.34206 4.30847V5.7918H1.52539C1.19387 5.7918 0.875927 5.9235 0.641507 6.15792C0.407087 6.39234 0.275391 6.71028 0.275391 7.0418C0.275391 7.37332 0.407087 7.69127 0.641507 7.92569C0.875927 8.16011 1.19387 8.2918 1.52539 8.2918H3.89206V27.8918C3.88526 28.6514 4.02905 29.4049 4.31512 30.1086C4.60118 30.8123 5.02386 31.4524 5.55872 31.9918C6.64928 33.0603 8.11528 33.6587 9.64206 33.6585H22.3421C23.8688 33.6587 25.3348 33.0603 26.4254 31.9918C26.9601 31.4523 27.3827 30.8122 27.6687 30.1085C27.9548 29.4048 28.0987 28.6514 28.0921 27.8918V8.2918H30.4754C30.8069 8.2918 31.1249 8.16011 31.3593 7.92569C31.5937 7.69127 31.7254 7.37332 31.7254 7.0418C31.7254 6.71028 31.5937 6.39234 31.3593 6.15792C31.1249 5.9235 30.8069 5.7918 30.4754 5.7918H30.5421ZM11.8754 4.30847C11.8755 4.1161 11.9138 3.92566 11.9882 3.74825C12.0626 3.57085 12.1716 3.41002 12.3087 3.27514C12.5843 3.00263 12.9546 2.84734 13.3421 2.8418H18.7754C18.9704 2.84059 19.1638 2.87829 19.344 2.95269C19.5243 3.0271 19.688 3.13672 19.8254 3.27514C20.0964 3.55164 20.2515 3.92134 20.2587 4.30847V5.7918H11.9254L11.8754 4.30847ZM14.0921 25.3251C14.0921 25.7672 13.9165 26.1911 13.6039 26.5036C13.2913 26.8162 12.8674 26.9918 12.4254 26.9918C11.9834 26.9918 11.5594 26.8162 11.2469 26.5036C10.9343 26.1911 10.7587 25.7672 10.7587 25.3251V16.2751C10.7587 15.8331 10.9343 15.4092 11.2469 15.0966C11.5594 14.7841 11.9834 14.6085 12.4254 14.6085C12.8674 14.6085 13.2913 14.7841 13.6039 15.0966C13.9165 15.4092 14.0921 15.8331 14.0921 16.2751V25.3251ZM21.3587 25.3251C21.3587 25.7672 21.1831 26.1911 20.8706 26.5036C20.558 26.8162 20.1341 26.9918 19.6921 26.9918C19.25 26.9918 18.8261 26.8162 18.5135 26.5036C18.201 26.1911 18.0254 25.7672 18.0254 25.3251V16.2751C18.0254 15.8331 18.201 15.4092 18.5135 15.0966C18.8261 14.7841 19.25 14.6085 19.6921 14.6085C20.1341 14.6085 20.558 14.7841 20.8706 15.0966C21.1831 15.4092 21.3587 15.8331 21.3587 16.2751V25.3251Z" fill="white"/>
</svg>
