<svg width="350" height="350" viewBox="0 0 350 350" fill="none" xmlns="http://www.w3.org/2000/svg">
<path d="M35.9995 268.42L26.7812 298.801H51.7496L61.2486 268.586L35.9995 268.42Z" fill="#263238" stroke="#263238" stroke-miterlimit="10" stroke-linecap="round" stroke-linejoin="round"/>
<path d="M94.2246 298.754H42.1908L36 268.42H88.0331L94.2246 298.754Z" fill="white" stroke="#263238" stroke-miterlimit="10" stroke-linecap="round" stroke-linejoin="round"/>
<path d="M88.8589 293.621H45.4589L42.2207 277.754H85.6207L88.8589 293.621Z" stroke="#263238" stroke-miterlimit="10" stroke-linecap="round" stroke-linejoin="round"/>
<path d="M45.9512 277.813L49.1642 293.554" stroke="#263238" stroke-miterlimit="10" stroke-linecap="round" stroke-linejoin="round"/>
<path d="M49.9316 277.813L53.1446 293.554" stroke="#263238" stroke-miterlimit="10" stroke-linecap="round" stroke-linejoin="round"/>
<path d="M53.9121 277.813L57.1244 293.554" stroke="#263238" stroke-miterlimit="10" stroke-linecap="round" stroke-linejoin="round"/>
<path d="M57.8926 277.813L61.1056 293.554" stroke="#263238" stroke-miterlimit="10" stroke-linecap="round" stroke-linejoin="round"/>
<path d="M61.873 277.813L65.086 293.554" stroke="#263238" stroke-miterlimit="10" stroke-linecap="round" stroke-linejoin="round"/>
<path d="M65.8535 277.813L69.0658 293.554" stroke="#263238" stroke-miterlimit="10" stroke-linecap="round" stroke-linejoin="round"/>
<path d="M69.834 277.813L73.047 293.554" stroke="#263238" stroke-miterlimit="10" stroke-linecap="round" stroke-linejoin="round"/>
<path d="M73.8145 277.813L77.0275 293.554" stroke="#263238" stroke-miterlimit="10" stroke-linecap="round" stroke-linejoin="round"/>
<path d="M77.7949 277.813L81.0072 293.554" stroke="#263238" stroke-miterlimit="10" stroke-linecap="round" stroke-linejoin="round"/>
<path d="M81.7754 277.813L84.9884 293.554" stroke="#263238" stroke-miterlimit="10" stroke-linecap="round" stroke-linejoin="round"/>
<path d="M42.959 280.89H86.1112" stroke="#263238" stroke-miterlimit="10" stroke-linecap="round" stroke-linejoin="round"/>
<path d="M43.6055 284.056H86.7577" stroke="#263238" stroke-miterlimit="10" stroke-linecap="round" stroke-linejoin="round"/>
<path d="M44.252 287.222H87.4035" stroke="#263238" stroke-miterlimit="10" stroke-linecap="round" stroke-linejoin="round"/>
<path d="M44.8984 290.388H88.0499" stroke="#263238" stroke-miterlimit="10" stroke-linecap="round" stroke-linejoin="round"/>
<path d="M61.1262 275.009H41.8566L41.543 273.471H60.8119L61.1262 275.009Z" fill="#263238"/>
<path d="M324.099 221.202H261.339C255.395 221.202 250.029 226.02 249.356 231.966L241.643 300.025H315.166L324.099 221.202Z" fill="white" stroke="#263238" stroke-miterlimit="10" stroke-linecap="round" stroke-linejoin="round"/>
<path d="M324.43 221.202C319.491 221.202 315.034 225.205 314.474 230.143L306.555 300.024H324.439L332.359 230.143C332.918 225.206 329.368 221.202 324.43 221.202Z" fill="#263238" stroke="#263238" stroke-miterlimit="10" stroke-linecap="round" stroke-linejoin="round"/>
<path d="M241.004 200.756C241.004 200.756 235.683 204.84 226.774 208.552C217.864 212.264 214.275 213.378 214.275 213.378L216.751 298.638H281.469C281.469 298.638 273.178 245.18 273.178 227.237C273.178 209.294 273.921 205.829 273.921 205.829L252.637 200.384L241.004 200.756Z" fill="#307A59" stroke="#263238" stroke-miterlimit="10" stroke-linecap="round" stroke-linejoin="round"/>
<path d="M233.95 204.345C233.95 204.345 230.733 226.124 230.361 248.027C229.99 269.93 234.197 299.133 234.197 299.133H212.418H186.803C186.803 299.133 195.203 284.495 199.309 263.638C202.8 245.907 205.612 215.853 206.354 215.482C207.098 215.11 232.218 205.829 233.95 204.345Z" fill="#263238" stroke="#263238" stroke-miterlimit="10" stroke-linecap="round" stroke-linejoin="round"/>
<path d="M212.418 299.133C212.418 299.133 207.592 266.465 207.839 258.792C208.086 251.12 209.324 225.133 209.324 225.133" stroke="#616161" stroke-miterlimit="10" stroke-linecap="round" stroke-linejoin="round"/>
<path d="M260.555 202.117C260.555 202.117 254.491 229.959 253.996 252.852C253.501 275.745 251.926 299.256 251.926 299.256H290.254C290.254 299.256 290.748 278.344 290.254 271.166C289.759 263.989 289.759 265.474 289.759 265.474L304.608 269.31C304.608 269.31 295.079 223.4 293.347 218.327C291.614 213.253 292.481 211.644 291.367 210.778C290.254 209.913 260.555 202.117 260.555 202.117Z" fill="#263238" stroke="#263238" stroke-miterlimit="10" stroke-linecap="round" stroke-linejoin="round"/>
<path d="M191.328 280.206C191.328 280.206 193.103 282.956 194.802 284.411C196.502 285.866 200.15 285.101 202.087 287.098C204.023 289.093 201.907 295.158 199.456 297.278C195.275 300.894 197.48 289.914 197.48 289.914C197.48 289.914 195.012 291.64 192.636 292.189C190.259 292.737 184.131 290.872 182.082 290.784C180.033 290.696 177.206 290.304 176.093 288.023C174.979 285.742 181.777 282.991 184.787 281.898C187.798 280.805 191.328 280.206 191.328 280.206Z" fill="white" stroke="#263238" stroke-miterlimit="10" stroke-linecap="round" stroke-linejoin="round"/>
<path d="M178.364 283.424C178.364 283.424 176.219 282.77 174.788 284.611C173.357 286.452 170.556 294.773 171.408 296.372C172.261 297.971 174.35 295.727 175.355 293.087C176.359 290.447 177.063 289.455 177.063 289.455C177.063 289.455 178.171 289.994 178.944 288.555C179.717 287.117 180.511 284.948 178.364 283.424Z" fill="white" stroke="#263238" stroke-miterlimit="10" stroke-linecap="round" stroke-linejoin="round"/>
<path d="M182.332 281.976C182.332 281.976 180.061 280.58 178.096 282.695C176.13 284.809 177.48 293.623 178.52 296.324C179.559 299.024 181.536 298.689 181.83 296.995C182.123 295.301 182.462 287.023 182.569 285.087C182.676 283.15 182.332 281.976 182.332 281.976Z" fill="white" stroke="#263238" stroke-miterlimit="10" stroke-linecap="round" stroke-linejoin="round"/>
<path d="M186.528 281.021C186.528 281.021 184.239 279.521 182.292 281.74C180.344 283.959 181.784 293.304 182.853 296.173C183.921 299.043 185.898 298.707 186.175 296.917C186.452 295.126 186.709 286.366 186.796 284.317C186.885 282.268 186.528 281.021 186.528 281.021Z" fill="white" stroke="#263238" stroke-miterlimit="10" stroke-linecap="round" stroke-linejoin="round"/>
<path d="M192.677 282.156C192.677 282.156 191.041 278.512 188.383 279.108C185.723 279.704 184.887 283.333 185.373 288.771C185.861 294.21 186.886 298.539 188.37 298.723C189.854 298.907 191.469 295.582 191.762 291.319C192.056 287.056 192.496 284.511 192.496 284.511" fill="white"/>
<path d="M192.677 282.156C192.677 282.156 191.041 278.512 188.383 279.108C185.723 279.704 184.887 283.333 185.373 288.771C185.861 294.21 186.886 298.539 188.37 298.723C189.854 298.907 191.469 295.582 191.762 291.319C192.056 287.056 192.496 284.511 192.496 284.511" stroke="#263238" stroke-miterlimit="10" stroke-linecap="round" stroke-linejoin="round"/>
<path d="M226.871 243.999H210.375V269.322H226.871V243.999Z" fill="#307A59" stroke="#263238" stroke-miterlimit="10" stroke-linecap="round" stroke-linejoin="round"/>
<path d="M219.781 236.619H216.742V248.34H219.781V236.619Z" fill="white" stroke="#263238" stroke-miterlimit="10" stroke-linecap="round" stroke-linejoin="round"/>
<path d="M221.518 251.09H214.428V260.351H221.518V251.09Z" fill="white" stroke="#263238" stroke-miterlimit="10" stroke-linecap="round" stroke-linejoin="round"/>
<path d="M213.27 263.101H222.965" stroke="#263238" stroke-miterlimit="10" stroke-linecap="round" stroke-linejoin="round"/>
<path d="M211.822 265.126H224.267" stroke="#263238" stroke-miterlimit="10" stroke-linecap="round" stroke-linejoin="round"/>
<path d="M239.271 197.167C239.271 197.167 233.95 200.756 232.96 203.601C231.97 206.447 227.886 218.574 226.278 223.153C224.669 227.732 215.512 231.691 216.749 232.557C217.987 233.423 229.99 234.537 229.99 234.537C229.99 234.537 232.712 245.179 233.331 247.901C233.95 250.624 237.662 258.914 237.662 258.914C237.662 258.914 248.675 245.674 250.407 242.085C252.14 238.496 254.491 235.155 254.491 235.155C254.491 235.155 259.194 236.269 262.163 236.764C265.133 237.259 273.3 238.001 272.929 236.64C272.558 235.278 268.474 229.339 266.866 223.523C265.257 217.707 266.247 204.961 264.267 200.012C262.288 195.062 257.956 194.319 256.472 193.948C254.987 193.579 241.499 195.063 239.271 197.167Z" fill="#307A59" stroke="#263238" stroke-miterlimit="10" stroke-linecap="round" stroke-linejoin="round"/>
<path d="M237.54 193.331C237.54 193.331 239.148 202.364 238.9 209.665C238.653 216.966 236.054 233.301 236.178 241.716C236.302 250.13 237.54 258.421 237.54 258.421C237.54 258.421 249.666 241.716 254.121 228.103C258.576 214.491 259.814 202.859 259.814 201.993C259.814 201.128 260.061 180.957 260.061 180.957C260.061 180.957 247.192 194.445 237.54 193.331Z" fill="white" stroke="#263238" stroke-miterlimit="10" stroke-linecap="round" stroke-linejoin="round"/>
<path d="M259.957 189.518C260.011 184.986 260.061 180.957 260.061 180.957C260.061 180.957 247.191 194.445 237.539 193.332C237.539 193.332 237.992 195.875 238.38 199.353C239.881 200.299 241.319 201.014 242.522 201.254C246.99 202.148 251.994 199.646 255.39 195.356C256.64 193.777 258.325 191.617 259.957 189.518Z" fill="#263238" stroke="#263238" stroke-miterlimit="10" stroke-linecap="round" stroke-linejoin="round"/>
<path d="M268.785 148.536C275.585 148.536 281.097 143.079 281.097 136.347C281.097 129.615 275.585 124.158 268.785 124.158C261.985 124.158 256.473 129.615 256.473 136.347C256.473 143.079 261.985 148.536 268.785 148.536Z" fill="#263238" stroke="#263238" stroke-miterlimit="10" stroke-linecap="round" stroke-linejoin="round"/>
<path d="M218.927 157.637C218.927 157.637 212.314 155.85 211.242 152.275C210.17 148.701 214.102 136.189 226.97 129.756C239.838 123.322 251.633 126.896 256.816 128.326C261.999 129.756 265.752 132.436 269.148 141.908C272.544 151.381 272.722 158.708 271.651 162.283C270.578 165.857 269.327 168.538 269.327 168.538C269.327 168.538 262.714 169.253 260.927 166.572C259.14 163.891 259.855 150.487 252.17 147.27C244.484 144.053 229.829 145.841 226.255 149.058C222.68 152.275 218.927 157.637 218.927 157.637Z" fill="#263238" stroke="#263238" stroke-miterlimit="10" stroke-linecap="round" stroke-linejoin="round"/>
<path d="M217.855 155.313C217.855 155.313 219.464 165.5 219.464 171.041C219.464 176.581 223.932 184.266 226.255 186.411C228.579 188.555 236.264 195.883 240.732 196.776C245.2 197.67 250.205 195.168 253.6 190.879C256.996 186.589 263.609 178.011 263.609 178.011C263.609 178.011 268.613 178.725 270.4 173.542C272.187 168.36 271.294 162.461 268.255 161.747C265.217 161.032 263.073 164.606 263.073 164.606C263.073 164.606 260.571 154.955 257.354 150.13C254.136 145.304 252.707 143.16 252.707 143.16L258.638 135.746C258.911 135.404 258.842 134.903 258.486 134.649C258.153 134.411 257.692 134.478 257.441 134.802L251.635 142.266C251.635 142.266 240.197 140.301 230.189 145.304C220.179 150.309 217.855 155.313 217.855 155.313Z" fill="white" stroke="#263238" stroke-miterlimit="10" stroke-linecap="round" stroke-linejoin="round"/>
<path d="M254.575 165.376L252.967 167.521" stroke="#263238" stroke-miterlimit="10" stroke-linecap="round" stroke-linejoin="round"/>
<path d="M232.51 177.653C232.51 177.653 232.867 178.726 235.191 179.262C237.514 179.798 239.659 178.904 241.089 177.117" stroke="#263238" stroke-miterlimit="10" stroke-linecap="round" stroke-linejoin="round"/>
<path d="M235.191 183.373C235.191 183.373 241.804 185.339 247.523 179.619C247.523 179.619 245.915 186.411 242.698 187.661C239.48 188.912 239.302 185.517 239.302 185.517L235.191 183.373Z" stroke="#263238" stroke-miterlimit="10" stroke-linecap="round" stroke-linejoin="round"/>
<path d="M241.625 169.79C241.625 169.79 246.093 165.143 252.884 166.752" stroke="#263238" stroke-width="2" stroke-miterlimit="10" stroke-linecap="round" stroke-linejoin="round"/>
<path d="M230.009 169.432C230.009 169.432 226.077 165.5 221.967 167.645" stroke="#263238" stroke-width="2" stroke-miterlimit="10" stroke-linecap="round" stroke-linejoin="round"/>
<path d="M220.715 166.752L222.68 168.718" stroke="#263238" stroke-miterlimit="10" stroke-linecap="round" stroke-linejoin="round"/>
<path d="M240.375 160.139C240.375 160.139 245.671 153.965 253.422 159.781" stroke="#263238" stroke-miterlimit="10" stroke-linecap="round" stroke-linejoin="round"/>
<path d="M229.651 159.96C229.651 159.96 224.825 156.207 220 160.497" stroke="#263238" stroke-miterlimit="10" stroke-linecap="round" stroke-linejoin="round"/>
<path d="M245.829 168.829C245.829 169.307 245.442 169.696 244.964 169.696C244.485 169.696 244.098 169.308 244.098 168.829C244.098 168.351 244.485 167.963 244.964 167.963C245.442 167.963 245.829 168.351 245.829 168.829Z" fill="#263238"/>
<path d="M225.413 168.087C225.413 168.565 225.026 168.953 224.548 168.953C224.069 168.953 223.682 168.565 223.682 168.087C223.682 167.609 224.069 167.221 224.548 167.221C225.026 167.221 225.413 167.609 225.413 168.087Z" fill="#263238"/>
<path d="M267.63 150.653C267.63 150.653 268.248 158.697 266.764 164.76L269.115 165.503C269.115 165.503 270.971 156.223 270.105 151.025L267.63 150.653Z" fill="#307A59" stroke="#263238" stroke-miterlimit="10" stroke-linecap="round" stroke-linejoin="round"/>
<path d="M251.645 127.128C251.645 127.128 259.811 130.717 262.658 139.874C265.504 149.031 265.133 151.877 266.865 152.867C268.597 153.857 271.938 154.476 272.062 152.248C272.186 150.021 271.408 140.088 266.494 133.934C262.744 129.239 254.738 127.252 251.645 127.128Z" fill="#307A59" stroke="#263238" stroke-miterlimit="10" stroke-linecap="round" stroke-linejoin="round"/>
<path d="M268.61 162.987C265.049 161.896 261.131 164.375 259.861 168.525C258.687 172.355 260.183 176.262 263.218 177.7C262.042 180.732 259.091 187.16 253.456 192.942C252.767 192.821 251.908 193.013 251.134 193.532C249.857 194.389 249.3 195.796 249.89 196.676C250.48 197.556 251.993 197.575 253.271 196.718C254.461 195.92 255.012 194.65 254.607 193.768C260.407 187.772 263.375 181.246 264.557 178.146C267.963 178.84 271.552 176.413 272.758 172.475C274.028 168.325 272.171 164.078 268.61 162.987Z" fill="#307A59" stroke="#263238" stroke-miterlimit="10" stroke-linecap="round" stroke-linejoin="round"/>
<path d="M271.635 171.078C271.033 173.729 268.645 175.447 266.3 174.915C263.955 174.383 262.541 171.804 263.142 169.153C263.744 166.502 266.131 164.784 268.477 165.316C270.821 165.847 272.235 168.427 271.635 171.078Z" fill="#307A59" stroke="#263238" stroke-miterlimit="10" stroke-linecap="round" stroke-linejoin="round"/>
<path d="M270.949 214.739C270.949 214.739 267.484 206.077 266.742 204.468C265.999 202.859 272.062 193.331 273.053 191.969C274.043 190.608 275.899 187.762 275.899 187.144C275.899 186.525 268.846 179.595 267.36 178.482C265.876 177.368 263.4 179.843 263.4 179.843C263.4 179.843 256.965 188.382 256.965 189.372C256.965 190.362 260.059 193.456 260.059 193.456C260.059 193.456 255.233 200.386 255.852 203.108C256.47 205.83 258.945 208.181 258.945 208.181L262.41 221.546L270.949 214.739Z" fill="white" stroke="#263238" stroke-miterlimit="10" stroke-linecap="round" stroke-linejoin="round"/>
<path d="M260.059 193.455C260.059 193.455 264.266 190.114 263.895 189.124C263.524 188.134 262.286 188.258 262.286 188.258" stroke="#263238" stroke-miterlimit="10" stroke-linecap="round" stroke-linejoin="round"/>
<path d="M263.029 180.957C263.4 180.957 274.29 188.134 274.042 189.371C273.795 190.609 273.053 191.97 273.053 191.97" stroke="#263238" stroke-miterlimit="10" stroke-linecap="round" stroke-linejoin="round"/>
<path d="M264.266 179.843C264.266 179.843 274.537 186.278 274.784 187.392C275.031 188.505 274.041 189.371 274.041 189.371" stroke="#263238" stroke-miterlimit="10" stroke-linecap="round" stroke-linejoin="round"/>
<path d="M265.381 178.729C265.381 178.729 276.147 186.03 275.899 187.144C275.651 188.257 274.538 189.619 274.538 189.619" stroke="#263238" stroke-miterlimit="10" stroke-linecap="round" stroke-linejoin="round"/>
<path d="M272.433 213.749L255.852 223.277C255.852 223.277 277.383 274.508 281.343 281.438C285.303 288.368 295.945 289.976 301.513 288.12C307.082 286.263 309.804 275.126 307.948 270.425C306.092 265.722 292.728 245.18 286.293 234.91C279.857 224.638 272.433 213.749 272.433 213.749Z" fill="#263238" stroke="#263238" stroke-miterlimit="10" stroke-linecap="round" stroke-linejoin="round"/>
<path d="M263.666 240.771C263.666 240.771 281.866 275.771 286.533 282.771" stroke="#616161" stroke-miterlimit="10" stroke-linecap="round" stroke-linejoin="round"/>
<path d="M273.932 217.904L299.599 257.104" stroke="#616161" stroke-miterlimit="10" stroke-linecap="round" stroke-linejoin="round"/>
<path d="M104.141 299.066H219.918V294.395H104.141V299.066Z" fill="white" stroke="#263238" stroke-miterlimit="10" stroke-linecap="round" stroke-linejoin="round"/>
<path d="M86.365 299.066H187.273V294.395H86.365V299.066Z" fill="white" stroke="#263238" stroke-miterlimit="10" stroke-linecap="round" stroke-linejoin="round"/>
<path d="M84.4024 286.091H180.946L170.538 212.385H73.9941L84.4024 286.091Z" fill="white" stroke="#263238" stroke-miterlimit="10" stroke-linecap="round" stroke-linejoin="round"/>
<path d="M80.4083 286.091H176.952L166.544 212.385H70L80.4083 286.091Z" fill="#263238" stroke="#263238" stroke-miterlimit="10" stroke-linecap="round" stroke-linejoin="round"/>
<path d="M109.988 251.833L100.303 299.067H125.218L134.903 251.833H109.988ZM126.893 265.848C126.798 266.247 126.44 266.526 126.031 266.522L111.918 266.386C111.353 266.38 110.941 265.852 111.072 265.303L112.345 260.001C112.44 259.604 112.798 259.324 113.207 259.328L127.32 259.464C127.885 259.469 128.297 259.999 128.166 260.547L126.893 265.848Z" fill="white" stroke="#263238" stroke-miterlimit="10" stroke-linecap="round" stroke-linejoin="round"/>
<path d="M13.4741 302.456L339.326 302.456V299.067L13.4741 299.067V302.456Z" fill="#263238" stroke="#263238" stroke-miterlimit="10" stroke-linecap="round" stroke-linejoin="round"/>
</svg>
