<svg width="15" height="11" viewBox="0 0 15 11" fill="none" xmlns="http://www.w3.org/2000/svg">
<path fill-rule="evenodd" clip-rule="evenodd" d="M8.23637 9.87204C8.04103 10.101 7.77612 10.2296 7.49991 10.2296C7.2237 10.2296 6.95879 10.101 6.76345 9.87204L0.870743 2.96335C0.771253 2.8507 0.691897 2.71594 0.637304 2.56694C0.582711 2.41794 0.553976 2.25768 0.552774 2.09552C0.551572 1.93337 0.577928 1.77255 0.630304 1.62246C0.68268 1.47237 0.760027 1.33601 0.857832 1.22135C0.955637 1.10668 1.07194 1.016 1.19996 0.954591C1.32797 0.893184 1.46514 0.862284 1.60345 0.863694C1.74176 0.865103 1.87845 0.898793 2.00554 0.962798C2.13263 1.0268 2.24757 1.11984 2.34366 1.23648L7.49991 7.28174L12.6562 1.23648C12.8526 1.01402 13.1157 0.890925 13.3889 0.893708C13.662 0.89649 13.9233 1.02493 14.1164 1.25136C14.3095 1.47779 14.4191 1.7841 14.4214 2.10431C14.4238 2.42453 14.3188 2.73302 14.1291 2.96335L8.23637 9.87204Z" fill="#307A59"/>
</svg>
