<svg width="19" height="21" viewBox="0 0 19 21" fill="none" xmlns="http://www.w3.org/2000/svg">
<path fill-rule="evenodd" clip-rule="evenodd" d="M8.14062 1.15104C8.50124 0.880579 8.93985 0.734375 9.39062 0.734375C9.8414 0.734375 10.28 0.880579 10.6406 1.15104L17.9323 6.61979C18.191 6.81385 18.401 7.06548 18.5457 7.35476C18.6903 7.64404 18.7656 7.96303 18.7656 8.28646V18.1823C18.7656 18.7348 18.5461 19.2647 18.1554 19.6554C17.7647 20.0461 17.2348 20.2656 16.6823 20.2656H11.5781C11.2742 20.2656 10.9828 20.1449 10.7679 19.93C10.553 19.7151 10.4323 19.4237 10.4323 19.1198V12.974C10.4323 12.6977 10.3225 12.4327 10.1272 12.2374C9.93184 12.042 9.66689 11.9323 9.39062 11.9323C9.11436 11.9323 8.84941 12.042 8.65406 12.2374C8.4587 12.4327 8.34896 12.6977 8.34896 12.974V19.1198C8.34896 19.2703 8.31932 19.4193 8.26174 19.5583C8.20415 19.6973 8.11975 19.8236 8.01335 19.93C7.90695 20.0364 7.78063 20.1208 7.64162 20.1784C7.5026 20.236 7.3536 20.2656 7.20312 20.2656H2.09896C1.54642 20.2656 1.01652 20.0461 0.625819 19.6554C0.235118 19.2647 0.015625 18.7348 0.015625 18.1823L0.015625 8.28646C0.015625 7.96303 0.0909273 7.64404 0.235568 7.35476C0.380209 7.06548 0.590216 6.81385 0.848958 6.61979L8.14062 1.15104ZM9.39062 2.81771L2.09896 8.28646L2.09896 18.1823H6.26562V12.974C6.26562 12.1452 6.59486 11.3503 7.18092 10.7642C7.76697 10.1782 8.56182 9.84896 9.39062 9.84896C10.2194 9.84896 11.0143 10.1782 11.6003 10.7642C12.1864 11.3503 12.5156 12.1452 12.5156 12.974V18.1823H16.6823V8.28646L9.39062 2.81771Z" fill="#307A59"/>
</svg>
