<svg width="26" height="23" viewBox="0 0 26 23" fill="none" xmlns="http://www.w3.org/2000/svg">
<path d="M3.625 2.125C3.625 1.26074 2.92676 0.5625 2.0625 0.5625C1.19824 0.5625 0.5 1.26074 0.5 2.125V18.5312C0.5 20.6895 2.24805 22.4375 4.40625 22.4375H23.9375C24.8018 22.4375 25.5 21.7393 25.5 20.875C25.5 20.0107 24.8018 19.3125 23.9375 19.3125H4.40625C3.97656 19.3125 3.625 18.9609 3.625 18.5312V2.125ZM23.4785 6.35352C24.0889 5.74316 24.0889 4.75195 23.4785 4.1416C22.8682 3.53125 21.877 3.53125 21.2666 4.1416L16.125 9.28809L13.3223 6.48535C12.7119 5.875 11.7207 5.875 11.1104 6.48535L5.6416 11.9541C5.03125 12.5645 5.03125 13.5557 5.6416 14.166C6.25195 14.7764 7.24316 14.7764 7.85352 14.166L12.2188 9.80566L15.0215 12.6084C15.6318 13.2188 16.623 13.2188 17.2334 12.6084L23.4834 6.3584L23.4785 6.35352Z" fill="#307A59"/>
</svg>
