<svg width="22" height="21" viewBox="0 0 22 21" fill="none" xmlns="http://www.w3.org/2000/svg">
<path d="M3.96856 0.125C3.59356 0.125 3.25293 0.339062 3.08965 0.676562L0.159965 6.73125C0.0793182 6.89796 0.0477348 7.08416 0.0688989 7.26813C0.090063 7.45211 0.163102 7.62627 0.279496 7.77031L10.2404 20.075C10.332 20.1882 10.4477 20.2795 10.5791 20.3423C10.7105 20.405 10.8542 20.4375 10.9998 20.4375C11.1454 20.4375 11.2892 20.405 11.4205 20.3423C11.5519 20.2795 11.6676 20.1882 11.7592 20.075L21.7201 7.77031C21.8365 7.62627 21.9096 7.45211 21.9307 7.26813C21.9519 7.08416 21.9203 6.89796 21.8397 6.73125L18.91 0.676562C18.8301 0.511328 18.7053 0.371944 18.5498 0.27439C18.3944 0.176837 18.2146 0.125061 18.0311 0.125L3.96856 0.125ZM2.69043 5.98438L4.58106 2.07812H7.46231L6.24122 5.98438H2.69043ZM2.92793 7.9375H6.1295L8.37012 14.6609L2.92793 7.9375ZM8.18809 7.9375H13.8115L10.9998 16.3727L8.18809 7.9375ZM15.8701 7.9375H19.0717L13.6295 14.6609L15.8701 7.9375ZM19.3092 5.98438H15.7576L14.5365 2.07812H17.4178L19.3092 5.98438ZM13.7123 5.98438H8.28731L9.5084 2.07812H12.4912L13.7123 5.98438Z" fill="#307A59"/>
</svg>
