<svg width="51" height="50" viewBox="0 0 51 50" fill="none" xmlns="http://www.w3.org/2000/svg">
<rect x="3" y="2.5" width="45" height="45" rx="22.5" stroke="white" stroke-width="5"/>
<path d="M34.7803 15.531C35.2206 15.1119 35.8064 14.8802 36.4141 14.8848C37.0219 14.8894 37.6042 15.13 38.038 15.5557C38.4718 15.9814 38.7233 16.559 38.7393 17.1666C38.7554 17.7742 38.5348 18.3642 38.1241 18.8123L25.6553 34.406C25.4409 34.637 25.1822 34.8223 24.8945 34.9509C24.6068 35.0796 24.2962 35.1489 23.9811 35.1547C23.6661 35.1605 23.3531 35.1028 23.0608 34.9849C22.7686 34.867 22.5031 34.6914 22.2803 34.4685L14.0116 26.1998C13.7813 25.9852 13.5966 25.7265 13.4685 25.439C13.3404 25.1515 13.2715 24.8411 13.266 24.5264C13.2604 24.2117 13.3183 23.8991 13.4362 23.6073C13.5541 23.3154 13.7295 23.0503 13.9521 22.8278C14.1747 22.6052 14.4398 22.4298 14.7316 22.3119C15.0234 22.194 15.336 22.1361 15.6507 22.1417C15.9654 22.1472 16.2758 22.2161 16.5633 22.3442C16.8508 22.4723 17.1095 22.657 17.3241 22.8873L23.8678 29.4279L34.721 15.5998L34.7803 15.531Z" fill="white"/>
</svg>
