<svg width="16" height="16" viewBox="0 0 16 16" fill="none" xmlns="http://www.w3.org/2000/svg">
<path fill-rule="evenodd" clip-rule="evenodd" d="M9.11146 4.66304C8.8932 4.81437 8.64699 4.9207 8.3872 4.97585C8.1274 5.031 7.85923 5.03385 7.59832 4.98424C7.33741 4.93463 7.08899 4.83356 6.86756 4.68691C6.64614 4.54026 6.45614 4.35098 6.30865 4.13011C6.16116 3.90925 6.05914 3.66122 6.00854 3.4005C5.95794 3.13978 5.95977 2.87159 6.01393 2.61159C6.06809 2.35159 6.17349 2.10497 6.32399 1.88614C6.47448 1.66731 6.66705 1.48065 6.89046 1.33704C7.33154 1.0457 7.87003 0.94083 8.38821 1.04536C8.90639 1.14988 9.36211 1.4553 9.65576 1.89485C9.94941 2.3344 10.0571 2.87233 9.9553 3.39105C9.85349 3.90977 9.55047 4.36709 9.11246 4.66304H9.11146ZM8.55646 2.16904C8.44756 2.0907 8.324 2.03507 8.19315 2.00546C8.0623 1.97586 7.92684 1.97288 7.79481 1.99672C7.66279 2.02055 7.53692 2.07071 7.42468 2.1442C7.31244 2.21769 7.21614 2.31301 7.14151 2.42449C7.06688 2.53597 7.01544 2.66133 6.99026 2.7931C6.96507 2.92487 6.96666 3.06037 6.99493 3.19151C7.0232 3.32265 7.07756 3.44677 7.15479 3.55647C7.23202 3.66617 7.33053 3.7592 7.44446 3.83004C7.66457 3.96375 7.92779 4.00739 8.17927 3.95185C8.43076 3.89632 8.65112 3.74589 8.79446 3.53192C8.93779 3.31795 8.99305 3.05693 8.94871 2.80323C8.90438 2.54953 8.76387 2.32272 8.55646 2.17004V2.16904ZM11.1665 2.19904C11.4549 2.00504 11.8019 1.91768 12.1478 1.95199C12.4937 1.98631 12.8168 2.14016 13.0615 2.38704C13.2358 2.56279 13.3644 2.77863 13.4359 3.01564C13.5074 3.25265 13.5196 3.50358 13.4715 3.74643C13.4235 3.98927 13.3165 4.21661 13.1601 4.4085C13.0037 4.60039 12.8026 4.75098 12.5745 4.84704C12.3005 4.96188 11.9984 4.99221 11.7071 4.93412C11.4158 4.87603 11.1484 4.73218 10.9395 4.52104C10.7823 4.36306 10.662 4.17228 10.5871 3.96237C10.5123 3.75246 10.4848 3.5286 10.5066 3.30682C10.5284 3.08504 10.5989 2.87081 10.7132 2.67947C10.8274 2.48814 10.9825 2.32442 11.1675 2.20004L11.1665 2.19904ZM11.6465 3.80904C11.7403 3.90253 11.8675 3.95489 12 3.95461C12.0656 3.95447 12.1306 3.94141 12.1911 3.91618C12.2517 3.89094 12.3067 3.85403 12.353 3.80754C12.3993 3.76105 12.4359 3.7059 12.4609 3.64524C12.4859 3.58457 12.4987 3.51959 12.4985 3.45398C12.4984 3.38838 12.4853 3.32344 12.4601 3.26288C12.4349 3.20233 12.3979 3.14733 12.3515 3.10104C12.2589 3.00659 12.1327 2.95266 12.0005 2.95104C11.9345 2.95104 11.8693 2.96407 11.8084 2.98939C11.7476 3.0147 11.6923 3.0518 11.6458 3.09855C11.5994 3.14529 11.5626 3.20077 11.5377 3.26178C11.5127 3.32279 11.5001 3.38813 11.5005 3.45404C11.5001 3.52008 11.5128 3.58554 11.5378 3.64665C11.5629 3.70775 11.5998 3.76228 11.6465 3.80904ZM3.19046 12.487H5.00046V13.492H3.19046C2.87367 13.4889 2.571 13.3605 2.34846 13.135C2.23748 13.0232 2.14963 12.8905 2.08992 12.7447C2.03021 12.5988 1.99981 12.4426 2.00046 12.285V10.475C1.86586 10.4704 1.73358 10.4386 1.61158 10.3815C1.48957 10.3244 1.38035 10.2433 1.29046 10.143C1.19473 10.0467 1.11965 9.93177 1.06979 9.8054C1.01993 9.67903 0.996339 9.54383 1.00046 9.40804V7.22604C1.00346 6.75404 1.19046 6.30304 1.52046 5.96804C1.84946 5.63704 2.29446 5.44804 2.76046 5.44504H4.60046C4.35201 5.74043 4.16502 6.08245 4.05046 6.45104H2.76046C2.55754 6.45706 2.3645 6.53999 2.22046 6.68304C2.07935 6.82858 2.00045 7.02333 2.00046 7.22604V9.45804H3.00046V12.284C2.99802 12.3113 3.0012 12.3388 3.0098 12.3647C3.0184 12.3907 3.03224 12.4146 3.05046 12.435C3.09066 12.4661 3.13968 12.4836 3.19046 12.485V12.487ZM10.4905 5.96904C10.3267 5.80404 10.132 5.67293 9.91749 5.58319C9.70301 5.49345 9.47295 5.44685 9.24046 5.44604H6.76046C6.29439 5.45031 5.84881 5.63824 5.52046 5.96904C5.19046 6.30404 5.00346 6.75504 5.00046 7.22704V10.405C4.99905 10.6779 5.10292 10.9408 5.29046 11.139C5.38035 11.2393 5.48957 11.3205 5.61158 11.3775C5.73358 11.4346 5.86586 11.4664 6.00046 11.471V13.794C5.99941 13.9526 6.02981 14.1098 6.08988 14.2566C6.14996 14.4033 6.23852 14.5367 6.35046 14.649C6.53046 14.817 6.75746 14.926 7.00046 14.961H9.00046C9.28173 14.9241 9.53943 14.7845 9.72402 14.5691C9.90861 14.3537 10.0071 14.0777 10.0005 13.794V11.47C10.1351 11.4654 10.2673 11.4336 10.3893 11.3765C10.5113 11.3194 10.6206 11.2383 10.7105 11.138C10.8061 11.0418 10.8811 10.927 10.9309 10.8009C10.9808 10.6747 11.0044 10.5397 11.0005 10.404V7.22604C11.0012 6.75622 10.8181 6.30575 10.4905 5.96904ZM10.0005 10.454H9.00046V13.794C8.99971 13.8468 8.97814 13.8971 8.94046 13.934C8.9234 13.9542 8.90186 13.9702 8.87756 13.9806C8.85325 13.991 8.82685 13.9956 8.80046 13.994H7.19046C7.1382 13.9916 7.08873 13.9698 7.05174 13.9328C7.01475 13.8958 6.99289 13.8463 6.99046 13.794V10.454H6.00046V7.22604C6.00046 7.02304 6.07946 6.82804 6.22046 6.68304C6.3645 6.53999 6.55754 6.45706 6.76046 6.45104H9.24046C9.39189 6.45397 9.53919 6.50091 9.66438 6.58615C9.78957 6.67139 9.88724 6.79123 9.94546 6.93104C9.98224 7.02503 10.0009 7.12512 10.0005 7.22604V10.454ZM12.8105 13.491H11.0005V12.486H12.8005C12.8512 12.4846 12.9003 12.4671 12.9405 12.436C12.9606 12.4164 12.9764 12.3926 12.9867 12.3664C12.997 12.3403 13.0017 12.3122 13.0005 12.284V9.45804H14.0005V7.22604C14.0005 7.02333 13.9216 6.82858 13.7805 6.68304C13.6364 6.53999 13.4434 6.45706 13.2405 6.45104H11.9505C11.8359 6.08245 11.6489 5.74043 11.4005 5.44504H13.2405C13.7065 5.44931 14.1521 5.63724 14.4805 5.96804C14.8105 6.30304 14.9975 6.75404 15.0005 7.22604V9.40804C15.0005 9.68104 14.8975 9.94304 14.7115 10.141C14.5255 10.34 14.2715 10.459 14.0005 10.474V12.284C14.0005 12.603 13.8755 12.908 13.6525 13.134C13.4299 13.3595 13.1272 13.4879 12.8105 13.491ZM4.00046 1.94504C3.70277 1.94416 3.41163 2.03247 3.1646 2.19858C2.91756 2.3647 2.72594 2.60101 2.61446 2.87704C2.50188 3.15273 2.47277 3.45541 2.53072 3.7475C2.58868 4.03959 2.73115 4.30822 2.94046 4.52004C3.15003 4.7314 3.41784 4.8755 3.7097 4.93391C4.00155 4.99233 4.3042 4.96242 4.57897 4.848C4.85374 4.73359 5.08817 4.53986 5.25231 4.29156C5.41645 4.04326 5.50284 3.75168 5.50046 3.45404C5.50046 3.05404 5.34246 2.67004 5.06046 2.38704C4.92147 2.24735 4.75632 2.13642 4.57444 2.06058C4.39256 1.98474 4.19752 1.94548 4.00046 1.94504ZM4.00046 3.95704C3.93455 3.95704 3.86928 3.94401 3.80842 3.9187C3.74756 3.89338 3.69231 3.85628 3.64584 3.80954C3.59937 3.76279 3.56261 3.70731 3.53766 3.6463C3.51271 3.58529 3.50006 3.51995 3.50046 3.45404C3.50072 3.32124 3.55339 3.1939 3.64701 3.09971C3.74064 3.00552 3.86766 2.95209 4.00046 2.95104C4.13278 2.95362 4.25891 3.00754 4.35221 3.1014C4.44551 3.19526 4.49867 3.32171 4.50046 3.45404C4.5002 3.58685 4.44753 3.71418 4.35391 3.80837C4.26028 3.90256 4.13326 3.95599 4.00046 3.95704Z" fill="white"/>
</svg>
